<svg width="830" height="873" viewBox="0 0 830 873" fill="none" xmlns="http://www.w3.org/2000/svg">
<path d="M829.361 331.682C829.361 148.924 683.308 0.249756 503.775 0.249756C439.108 0.249756 377.003 19.4178 323.477 55.8081C269.923 19.4178 207.818 0.249756 143.151 0.249756C102.394 0.249756 62.6571 7.81611 25.0007 22.7469C17.3137 25.8022 13.4913 34.6224 16.5067 42.4481C19.4937 50.2738 28.1151 54.1505 35.8587 51.124C70.0326 37.5767 106.117 30.7024 143.137 30.7024C189.443 30.7024 234.319 41.5547 275.076 62.3367C88.8322 86.6209 -55.6352 248.885 -55.6352 445.018C-55.6352 503.084 -42.9227 559.391 -19.0264 610.554C-96.1937 532.066 -152.551 438.316 -152.551 331.682C-152.551 323.28 -159.247 316.463 -167.486 316.463C-175.754 316.463 -182.45 323.28 -182.45 331.682C-182.45 486.049 -75.8085 613.465 47.0987 709.103C47.9056 709.953 48.6134 710.847 49.4203 711.697C51.1333 713.527 53.2143 714.752 55.3944 715.516C98.3878 748.289 143.094 777.214 185.734 802.06C200.853 810.851 216.425 819.456 232.181 827.944C232.479 828.088 232.734 828.275 233.045 828.405C260.367 843.091 288.425 857.301 317.177 870.79C317.234 870.819 317.319 870.819 317.376 870.863C318.126 871.18 318.89 871.425 319.669 871.641C319.895 871.699 320.108 871.814 320.334 871.857C321.325 872.074 322.387 872.189 323.463 872.189C324.51 872.189 325.558 872.059 326.563 871.857C326.789 871.814 327.002 871.699 327.229 871.641C328.036 871.425 328.772 871.194 329.522 870.863C329.578 870.819 329.664 870.819 329.72 870.79C358.331 857.359 386.261 843.221 413.385 828.636C414.575 828.189 415.707 827.598 416.754 826.834C431.817 818.706 446.696 810.448 461.164 802.046C503.803 777.2 548.481 748.289 591.475 715.516C593.683 714.752 595.736 713.513 597.449 711.683C598.255 710.832 598.992 709.939 599.799 709.089C722.72 613.465 829.361 486.049 829.361 331.682ZM495.054 465.627C495.054 606.23 457.398 737.739 398.974 801.988C379.226 812.595 359.024 822.914 338.426 832.916V451.445H494.899C494.969 456.173 495.054 460.885 495.054 465.627ZM247.938 801.988C188.65 736.831 151.857 608.363 151.857 465.627C151.857 460.885 151.97 456.173 152.055 451.445H308.528L308.528 832.916C287.93 822.914 267.714 812.581 247.938 801.988ZM308.528 91.1176V421.007H153.188C162.999 247.992 228.954 107 308.528 91.1176ZM338.412 421.007V91.1176C417.986 107.014 483.899 248.006 493.752 421.007H338.412ZM414.886 101.984C555.899 140.969 661.663 267.823 671.756 421.007H523.778C516.445 279.539 474.527 161.938 414.886 101.984ZM232.04 101.984C172.37 161.938 130.481 279.539 123.133 421.007H-24.8164C-14.7228 267.823 91.0409 140.969 232.04 101.984ZM67.5835 686.793C8.86214 622.401 -24.0238 539.286 -25.5668 451.445H122.143C122.058 456.173 121.973 460.871 121.973 465.627C121.973 583.315 146.52 692.457 188.055 768.206C148.29 744.527 107.094 717.289 67.5835 686.793ZM458.884 768.192C500.42 692.457 524.967 583.33 524.967 465.627C524.967 460.871 524.882 456.173 524.797 451.445H672.507C670.964 539.272 638.078 622.371 579.385 686.75C539.874 717.274 498.636 744.499 458.884 768.192ZM665.952 610.525C689.849 559.362 702.561 503.069 702.561 445.018C702.561 248.9 558.093 86.6209 371.85 62.3367C412.607 41.5547 457.483 30.7024 503.789 30.7024C666.816 30.7024 799.448 165.728 799.448 331.697C799.448 438.288 743.12 532.052 665.952 610.525Z" fill="#A35A1E" fill-opacity="0.12"/>
</svg>
