<svg width="611" height="919" viewBox="0 0 611 919" fill="none" xmlns="http://www.w3.org/2000/svg">
<path d="M963.879 294.386C938.403 132.556 788.349 21.5155 629.375 46.8473C572.113 55.9717 519.793 81.7076 477.469 121.483C424.975 96.8164 367.31 88.6062 310.048 97.7306C273.958 103.481 239.827 115.788 208.564 134.322C202.183 138.112 200.028 146.462 203.789 152.966C207.525 159.474 215.699 161.69 222.134 157.918C250.506 141.1 281.5 129.921 314.28 124.698C355.284 118.164 396.534 121.442 435.52 134.093C273.99 181.875 168.686 345.942 196.027 519.615C204.122 571.031 223.228 619.097 251.52 661.029C172.248 602.417 109.275 527.355 94.4103 432.932C93.239 425.492 86.3596 420.4 79.064 421.563C71.7433 422.73 66.7643 429.711 67.9355 437.151C89.4545 573.84 201.646 671.618 323.81 738.962C324.643 739.601 325.395 740.293 326.228 740.932C328 742.311 330.013 743.102 332.05 743.471C374.689 766.424 418.308 785.729 459.528 801.714C474.141 807.365 489.13 812.787 504.265 818.08C504.548 818.166 504.8 818.295 505.094 818.366C531.334 827.515 558.16 836.139 585.5 844.027C585.555 844.044 585.63 844.033 585.686 844.063C586.395 844.238 587.106 844.347 587.825 844.429C588.034 844.448 588.238 844.52 588.445 844.526C589.352 844.578 590.308 844.53 591.261 844.379C592.189 844.231 593.098 843.968 593.96 843.647C594.155 843.577 594.327 843.445 594.519 843.362C595.204 843.057 595.823 842.748 596.441 842.349C596.486 842.303 596.561 842.291 596.607 842.257C620.069 826.326 642.83 809.867 664.815 793.125C665.806 792.561 666.726 791.878 667.547 791.054C679.751 781.731 691.775 772.32 703.415 762.838C737.708 734.821 773.24 702.917 806.741 667.831C808.59 666.843 810.235 665.456 811.497 663.594C812.093 662.727 812.62 661.832 813.216 660.965C908.731 558.948 985.398 431.076 963.879 294.386ZM686.527 460.163C706.128 584.665 691.116 706.427 648.339 771.562C632.331 783.741 615.881 795.729 599.036 807.491L545.859 469.705L684.413 447.627C685.134 451.803 685.866 455.964 686.527 460.163ZM514.599 792.873C453.017 743.543 402.529 634.978 382.632 508.587C381.971 504.388 381.414 500.199 380.83 496.001L519.384 473.924L572.562 811.71C552.928 805.76 533.587 799.462 514.599 792.873ZM469.154 154.858L515.141 446.971L377.59 468.889C362.158 314.302 400.906 180.149 469.154 154.858ZM541.603 442.754L495.616 150.642C568.293 153.49 646.313 269.036 679.154 420.836L541.603 442.754ZM564.847 149.474C695.147 164.097 806.482 261.501 836.774 395.72L705.742 416.6C679.528 292.367 626.017 194.147 564.847 149.474ZM402.94 175.273C358.461 236.78 337.762 346.825 350.977 473.13L219.97 494.005C207.553 356.938 283.522 229.688 402.94 175.273ZM338.839 716.317C277.866 667.584 237.16 598.628 223.548 521.064L354.343 500.222C354.927 504.42 355.506 508.592 356.169 512.804C372.575 617.015 409.526 710.195 456.864 771.409C418.352 756.053 378.077 737.746 338.839 716.317ZM696.678 733.183C722.899 660.26 729.423 560.166 713.015 455.942C712.352 451.731 711.622 447.582 710.888 443.408L841.682 422.567C852.559 500.554 835.023 578.777 792.026 644.065C761.295 676.669 728.574 706.594 696.678 733.183ZM858.054 564.354C872.082 515.679 875.491 464.038 867.399 412.635C840.06 238.975 689.514 115.663 521.213 120.439C554.405 96.2858 592.629 80.3443 633.633 73.8106C777.991 50.8079 914.258 151.657 937.394 298.62C952.253 393.004 915.445 483.979 858.054 564.354Z" fill="#A35A1E" fill-opacity="0.12"/>
<path d="M45.3293 325.712L38.152 339.872L69.2088 345.493C68.6091 349.357 68.6932 351.933 69.8437 352.548C70.9942 353.163 73.107 351.727 75.8391 349.002L98.2756 371.617L105.455 357.47L87.722 334.289C98.2483 319.53 111.942 297.463 125.471 274.024L186.217 335.274L196.406 315.191L142.127 244.251C146.818 235.602 151.297 227.079 155.4 219.021C176.801 176.863 148.773 162.073 127.371 204.231C123.292 212.272 119.077 220.923 114.863 229.823L26.7235 225.567L16.5339 245.649L100.619 260.886C89.6433 285.685 79.884 309.806 74.1551 327.124L45.3293 325.712Z" fill="#A35A1E" fill-opacity="0.12"/>
</svg>
