<svg width="61" height="60" viewBox="0 0 61 60" fill="none" xmlns="http://www.w3.org/2000/svg">
<rect x="0.5" width="60" height="60" rx="30" fill="#181818"/>
<path d="M30.5 17.7108C34.4759 17.7108 35.0181 17.7108 36.6446 17.7108C38.0904 17.7108 38.8133 18.0723 39.3554 18.253C40.0783 18.6145 40.6205 18.7952 41.1627 19.3374C41.7048 19.8795 42.0663 20.4217 42.247 21.1446C42.4277 21.6867 42.6084 22.4096 42.7892 23.8554C42.7892 25.4819 42.7892 25.8434 42.7892 30C42.7892 34.1566 42.7892 34.5181 42.7892 36.1446C42.7892 37.5904 42.4277 38.3133 42.247 38.8554C41.8855 39.5783 41.7048 40.1205 41.1627 40.6627C40.6205 41.2048 40.0783 41.5663 39.3554 41.747C38.8133 41.9277 38.0904 42.1084 36.6446 42.2892C35.0181 42.2892 34.6566 42.2892 30.5 42.2892C26.3434 42.2892 25.9819 42.2892 24.3554 42.2892C22.9096 42.2892 22.1867 41.9277 21.6446 41.747C20.9217 41.3855 20.3795 41.2048 19.8374 40.6627C19.2952 40.1205 18.9337 39.5783 18.753 38.8554C18.5723 38.3133 18.3916 37.5904 18.2108 36.1446C18.2108 34.5181 18.2108 34.1566 18.2108 30C18.2108 25.8434 18.2108 25.4819 18.2108 23.8554C18.2108 22.4096 18.5723 21.6867 18.753 21.1446C19.1145 20.4217 19.2952 19.8795 19.8374 19.3374C20.3795 18.7952 20.9217 18.4337 21.6446 18.253C22.1867 18.0723 22.9096 17.8916 24.3554 17.7108C25.9819 17.7108 26.5241 17.7108 30.5 17.7108ZM30.5 15C26.3434 15 25.9819 15 24.3554 15C22.7289 15 21.6446 15.3614 20.741 15.7229C19.8374 16.0843 18.9337 16.6265 18.0301 17.5301C17.1265 18.4337 16.7651 19.1566 16.2229 20.241C15.8614 21.1446 15.6807 22.2289 15.5 23.8554C15.5 25.4819 15.5 26.0241 15.5 30C15.5 34.1566 15.5 34.5181 15.5 36.1446C15.5 37.7711 15.8614 38.8554 16.2229 39.759C16.5843 40.6627 17.1265 41.5663 18.0301 42.4699C18.9337 43.3735 19.6566 43.7349 20.741 44.2771C21.6446 44.6386 22.7289 44.8193 24.3554 45C25.9819 45 26.5241 45 30.5 45C34.4759 45 35.0181 45 36.6446 45C38.2711 45 39.3554 44.6386 40.259 44.2771C41.1627 43.9157 42.0663 43.3735 42.9699 42.4699C43.8735 41.5663 44.2349 40.8434 44.7771 39.759C45.1386 38.8554 45.3193 37.7711 45.5 36.1446C45.5 34.5181 45.5 33.9759 45.5 30C45.5 26.0241 45.5 25.4819 45.5 23.8554C45.5 22.2289 45.1386 21.1446 44.7771 20.241C44.4157 19.3374 43.8735 18.4337 42.9699 17.5301C42.0663 16.6265 41.3434 16.2651 40.259 15.7229C39.3554 15.3614 38.2711 15.1807 36.6446 15C35.0181 15 34.6566 15 30.5 15Z" fill="white"/>
<path d="M30.5 22.2289C26.1627 22.2289 22.7289 25.6627 22.7289 30C22.7289 34.3374 26.1627 37.7711 30.5 37.7711C34.8374 37.7711 38.2711 34.3374 38.2711 30C38.2711 25.6627 34.8374 22.2289 30.5 22.2289ZM30.5 35.0602C27.7892 35.0602 25.4398 32.8916 25.4398 30C25.4398 27.2892 27.6084 24.9398 30.5 24.9398C33.2108 24.9398 35.5602 27.1084 35.5602 30C35.5602 32.7108 33.2108 35.0602 30.5 35.0602Z" fill="white"/>
<path d="M38.4518 23.8554C39.4499 23.8554 40.259 23.0463 40.259 22.0482C40.259 21.0501 39.4499 20.241 38.4518 20.241C37.4537 20.241 36.6446 21.0501 36.6446 22.0482C36.6446 23.0463 37.4537 23.8554 38.4518 23.8554Z" fill="white"/>
</svg>
