<svg width="118" height="98" viewBox="0 0 118 98" fill="none" xmlns="http://www.w3.org/2000/svg">
<path d="M118 37.2507C118 16.7099 101.352 0 80.8881 0C73.517 0 66.4381 2.15436 60.3369 6.24437C54.2326 2.15436 47.1536 0 39.7825 0C35.1369 0 30.6074 0.850406 26.3152 2.52853C25.439 2.87193 25.0033 3.86325 25.347 4.74281C25.6875 5.62236 26.6702 6.05808 27.5528 5.71792C31.4481 4.1953 35.5612 3.42266 39.7809 3.42266C45.0591 3.42266 50.1743 4.64239 54.8199 6.97815C33.591 9.70753 17.1239 27.9449 17.1239 49.9889C17.1239 56.5151 18.573 62.8437 21.2968 68.594C12.5009 59.7725 6.07701 49.2357 6.07701 37.2507C6.07701 36.3064 5.31378 35.5402 4.37465 35.5402C3.43229 35.5402 2.66903 36.3064 2.66903 37.2507C2.66903 54.6005 14.8245 68.9212 28.834 79.6702C28.926 79.7658 29.0067 79.8662 29.0987 79.9618C29.2939 80.1675 29.5311 80.3052 29.7796 80.391C34.6802 84.0745 39.776 87.3254 44.6363 90.118C46.3597 91.1061 48.1347 92.0731 49.9306 93.0272C49.9645 93.0434 49.9936 93.0644 50.0291 93.079C53.1434 94.7296 56.3416 96.3267 59.6189 97.8428C59.6253 97.846 59.635 97.846 59.6415 97.8509C59.727 97.8865 59.8141 97.9141 59.9028 97.9384C59.9287 97.9449 59.9529 97.9579 59.9787 97.9627C60.0917 97.987 60.2127 98 60.3353 98C60.4547 98 60.5741 97.9854 60.6887 97.9627C60.7145 97.9579 60.7387 97.9449 60.7646 97.9384C60.8565 97.9141 60.9404 97.8882 61.026 97.8509C61.0324 97.846 61.0421 97.846 61.0486 97.8428C64.3097 96.3331 67.4934 94.7441 70.5851 93.1049C70.7207 93.0547 70.8497 92.9883 70.9691 92.9024C72.686 91.9888 74.382 91.0607 76.0311 90.1164C80.8914 87.3238 85.984 84.0745 90.8845 80.391C91.1363 80.3052 91.3702 80.1659 91.5655 79.9602C91.6575 79.8646 91.7414 79.7642 91.8334 79.6686C105.845 68.9212 118 54.6005 118 37.2507ZM79.8941 52.3052C79.8941 68.108 75.6019 82.8888 68.9424 90.1099C66.6914 91.302 64.3888 92.4618 62.0409 93.586V50.7113H79.8764C79.8845 51.2426 79.8941 51.7723 79.8941 52.3052ZM51.7266 90.1099C44.9687 82.7867 40.7749 68.3478 40.7749 52.3052C40.7749 51.7723 40.7878 51.2426 40.7975 50.7113H58.6329V93.586C56.2851 92.4618 53.9808 91.3004 51.7266 90.1099ZM58.6329 10.2129V47.2903H40.9266C42.0448 27.8445 49.5627 11.9979 58.6329 10.2129ZM62.0393 47.2903V10.2129C71.1095 11.9996 78.6226 27.8461 79.7457 47.2903H62.0393ZM70.7561 11.4343C86.8295 15.8158 98.8849 30.0733 100.035 47.2903H83.1682C82.3323 31.3902 77.5544 18.1726 70.7561 11.4343ZM49.9145 11.4343C43.1131 18.1726 38.3383 31.3902 37.5008 47.2903H20.6368C21.7873 30.0733 33.8428 15.8158 49.9145 11.4343ZM31.169 77.1628C24.4756 69.9255 20.7272 60.584 20.5513 50.7113H37.3879C37.3782 51.2426 37.3685 51.7707 37.3685 52.3052C37.3685 65.5326 40.1665 77.7993 44.9009 86.313C40.3682 83.6517 35.6726 80.5903 31.169 77.1628ZM75.7713 86.3115C80.5057 77.7994 83.3037 65.5342 83.3037 52.3052C83.3037 51.7707 83.294 51.2426 83.2844 50.7113H100.121C99.9451 60.5824 96.1966 69.9222 89.5065 77.1579C85.0029 80.5886 80.3024 83.6485 75.7713 86.3115ZM99.3739 68.5907C102.098 62.8404 103.547 56.5135 103.547 49.9889C103.547 27.9466 87.0796 9.70753 65.8507 6.97815C70.4963 4.64239 75.6115 3.42266 80.8897 3.42266C99.4723 3.42266 114.59 18.5986 114.59 37.2523C114.59 49.2324 108.17 59.7709 99.3739 68.5907Z" fill="url(#paint0_radial_47_713)"/>
<path d="M2.03319 23.0061L0.851972 24.6178L4.64081 25.9266C4.48913 26.3931 4.44876 26.7139 4.58108 26.8127C4.71339 26.9115 5.00709 26.7754 5.40404 26.4919L7.77446 29.7348L8.95562 28.1247L7.18712 24.9045C8.80075 23.2847 10.9566 20.8226 13.1188 18.1872L19.5362 26.9698L21.2128 24.6842L15.799 14.8293C16.559 13.8509 17.29 12.8839 17.9645 11.9671C21.4855 7.16925 18.2582 4.78492 14.7373 9.58279C14.066 10.498 13.3657 11.486 12.6606 12.5049L1.67656 10.2388L0 12.5243L10.2578 16.0701C8.38925 18.9242 6.68687 21.7184 5.6251 23.7496L2.03319 23.0061Z" fill="url(#paint1_radial_47_713)"/>
<defs>
<radialGradient id="paint0_radial_47_713" cx="0" cy="0" r="1" gradientUnits="userSpaceOnUse" gradientTransform="translate(95.5184 2.54245) scale(99.4666 99.8474)">
<stop offset="0.0054" stop-color="#FC405E"/>
<stop offset="0.2494" stop-color="#F83C5C"/>
<stop offset="0.5102" stop-color="#EB2F55"/>
<stop offset="0.7779" stop-color="#D61A4A"/>
<stop offset="1" stop-color="#BE023E"/>
</radialGradient>
<radialGradient id="paint1_radial_47_713" cx="0" cy="0" r="1" gradientUnits="userSpaceOnUse" gradientTransform="translate(95.5175 2.54246) scale(99.4665 99.8472)">
<stop offset="0.0054" stop-color="#FC405E"/>
<stop offset="0.2494" stop-color="#F83C5C"/>
<stop offset="0.5102" stop-color="#EB2F55"/>
<stop offset="0.7779" stop-color="#D61A4A"/>
<stop offset="1" stop-color="#BE023E"/>
</radialGradient>
</defs>
</svg>
