<svg width="1262" height="1101" viewBox="0 0 1262 1101" fill="none" xmlns="http://www.w3.org/2000/svg">
<path d="M1176.52 620.947C1222.81 426.341 1104.61 230.263 913.04 183.838C844.036 167.117 772.912 171.468 706.58 196.376C658.651 143.779 597.235 107.309 528.232 90.5873C484.742 80.0483 440.423 77.8298 396.46 83.9912C387.484 85.2569 381.171 93.6605 382.407 102.773C383.612 111.879 391.83 118.236 400.859 117.016C440.756 111.427 481.002 113.438 520.504 123.01C569.915 134.984 615.053 158.144 653.279 190.813C448.395 168.512 253.143 303.938 203.469 512.785C188.763 574.615 188.068 637.86 200.609 698.519C138.144 594.989 101.751 480.588 128.758 367.042C130.886 358.095 125.468 349.105 116.676 346.974C107.854 344.836 98.9824 350.363 96.8544 359.31C57.7586 523.684 139.281 686.935 246.209 820.555C246.855 821.669 247.384 822.804 248.03 823.918C249.394 826.31 251.304 828.152 253.437 829.529C291.014 875.544 331.392 917.904 370.599 955.387C384.505 968.658 398.943 981.846 413.606 994.96C413.887 995.19 414.111 995.455 414.411 995.674C439.846 1018.38 466.187 1040.76 493.45 1062.56C493.503 1062.61 493.594 1062.63 493.644 1062.69C494.364 1063.22 495.117 1063.68 495.893 1064.11C496.121 1064.23 496.318 1064.41 496.549 1064.51C497.552 1065 498.655 1065.4 499.803 1065.68C500.921 1065.95 502.072 1066.08 503.195 1066.13C503.448 1066.14 503.704 1066.07 503.96 1066.07C504.876 1066.05 505.72 1065.99 506.605 1065.83C506.676 1065.8 506.767 1065.82 506.835 1065.81C540.765 1058.9 574.15 1051.07 606.787 1042.55C608.169 1042.38 609.527 1042.05 610.838 1041.51C628.97 1036.74 646.938 1031.8 664.504 1026.59C716.296 1011.16 771.292 991.93 825.469 968.15C828.019 967.908 830.523 967.119 832.814 965.613C833.891 964.916 834.903 964.155 835.979 963.459C991.362 893.422 1137.43 785.321 1176.52 620.947ZM785.871 677.129C750.261 826.847 676.772 957.144 598.158 1010.45C574.399 1016.64 550.229 1022.4 525.717 1027.73L622.33 621.527L789.296 661.988C788.175 667.04 787.072 672.08 785.871 677.129ZM436.993 971.395C390.231 886.684 383.507 740.374 419.658 588.384C420.859 583.336 422.173 578.346 423.461 573.335L590.427 613.796L493.813 1020C474.367 1004.02 455.413 987.788 436.993 971.395ZM681.685 230.109L598.136 581.385L432.378 541.216C486.666 359.522 592.753 226.444 681.685 230.109ZM630.024 589.112L713.574 237.837C794.458 275.34 829.084 442.516 795.782 629.28L630.024 589.112ZM792.424 269.183C933.021 347.158 1013.75 509.584 985.724 675.309L827.821 637.045C855.825 484.51 840.881 348.445 792.424 269.183ZM597.316 221.902C518.46 270.313 443.977 384.706 400.308 533.445L242.436 495.188C292.003 334.682 436.988 226.954 597.316 221.902ZM273.718 802.096C227.367 718.345 213.326 621.339 233.926 527.405L391.542 565.6C390.254 570.612 388.973 575.593 387.769 580.657C357.962 705.974 356.514 828.539 381.65 919.939C345.215 884.442 308.155 844.786 273.718 802.096ZM670.646 989.956C734.148 920.052 787.98 810.197 817.79 684.864C818.994 679.8 820.094 674.775 821.2 669.719L978.815 707.915C954.925 801.036 898.788 881.018 819.854 934.393C769.962 956.679 719.064 975.006 670.646 989.956ZM931.532 875.611C969.989 827.311 997.811 770.657 1012.51 708.842C1062.18 500.01 949.127 289.854 756.543 215.837C805.297 204.246 855.931 204.295 905.343 216.269C1079.3 258.425 1186.63 436.5 1144.6 613.228C1117.6 726.729 1033.75 812.005 931.532 875.611Z" fill="#A35A1E" fill-opacity="0.12"/>
<path d="M123.72 223.048L109.028 235.641L141.554 256.64C139.082 260.716 137.981 263.664 138.997 264.901C140.014 266.137 143.07 265.514 147.426 263.729L162.312 299.836L177 287.259L167.699 252.732C186.459 241.044 212.193 222.605 238.379 202.537L278.672 300.323L299.521 282.469L271.042 176.8C280.364 169.253 289.388 161.748 297.77 154.591C341.551 117.116 316.707 87.1988 272.926 124.674C264.578 131.824 255.794 139.598 246.895 147.652L149.156 101.256L128.307 119.109L216.362 175.985C192.434 198.79 170.196 221.405 155.676 238.244L123.72 223.048Z" fill="#A35A1E" fill-opacity="0.12"/>
</svg>
