<svg width="33" height="33" viewBox="0 0 33 33" fill="none" xmlns="http://www.w3.org/2000/svg">
<path d="M30.9991 23.7121V28.0777C31.0008 28.483 30.9176 28.8842 30.7549 29.2555C30.5922 29.6269 30.3536 29.9602 30.0544 30.2342C29.7551 30.5082 29.4018 30.7168 29.0172 30.8466C28.6325 30.9764 28.2249 31.0247 27.8204 30.9882C23.3336 30.5016 19.0236 28.9715 15.2369 26.5207C11.7139 24.2864 8.72693 21.3054 6.48824 17.7893C4.024 13.9929 2.49045 9.67061 2.01184 5.17253C1.9754 4.77011 2.02332 4.36453 2.15254 3.98161C2.28177 3.59869 2.48947 3.24682 2.76242 2.9484C3.03537 2.64998 3.36759 2.41155 3.73793 2.24829C4.10828 2.08503 4.50862 2.00052 4.91348 2.00014H9.28781C9.99545 1.99319 10.6815 2.24328 11.218 2.70379C11.7545 3.1643 12.105 3.80381 12.204 4.50312C12.3887 5.90024 12.7311 7.27202 13.2247 8.5923C13.4209 9.11316 13.4634 9.67923 13.3471 10.2234C13.2308 10.7676 12.9606 11.2672 12.5686 11.6628L10.7168 13.511C12.7925 17.1542 15.815 20.1707 19.4654 22.2423L21.3172 20.3942C21.7137 20.0029 22.2142 19.7333 22.7595 19.6172C23.3048 19.5011 23.872 19.5435 24.3939 19.7393C25.7168 20.232 27.0913 20.5737 28.4912 20.758C29.1995 20.8577 29.8463 21.2138 30.3087 21.7584C30.7711 22.3031 31.0168 22.9984 30.9991 23.7121Z" stroke="#C50942" stroke-width="2.5" stroke-linecap="round" stroke-linejoin="round"/>
</svg>
