<svg width="60" height="60" viewBox="0 0 60 60" fill="none" xmlns="http://www.w3.org/2000/svg">
<rect width="60" height="60" rx="30" fill="#181818"/>
<path d="M31.4738 40.5C20.1989 40.5 13.768 32.6171 13.5 19.5H19.1477C19.3332 29.1276 23.4969 33.2057 26.7948 34.0465V19.5H32.1127V27.8033C35.3695 27.4459 38.7911 23.6622 39.9453 19.5H45.2633C44.8283 21.6586 43.9613 23.7025 42.7164 25.5038C41.4715 27.305 39.8756 28.825 38.0284 29.9685C40.0903 31.0133 41.9115 32.4922 43.3718 34.3076C44.8321 36.123 45.8983 38.2335 46.5 40.5H40.6462C40.106 38.5314 39.0081 36.7692 37.4901 35.4342C35.9721 34.0993 34.1015 33.2509 32.1127 32.9955V40.5H31.4738Z" fill="white"/>
</svg>
